<svg width="512" height="512" viewBox="0 0 512 512" fill="none" xmlns="http://www.w3.org/2000/svg">
<path d="M512 256C512 397.385 397.385 512 256 512C114.615 512 0 397.385 0 256C0 114.615 114.615 0 256 0C397.385 0 512 114.615 512 256Z" fill="black"/>
<path d="M256 138.376C256.727 138.376 257.452 138.383 258.176 138.396C254.369 201.709 203.87 252.204 140.554 256C203.869 259.796 254.368 310.289 258.176 373.601C257.452 373.614 256.727 373.624 256 373.624C191.038 373.624 138.376 320.962 138.376 256C138.376 191.038 191.038 138.376 256 138.376Z" fill="white"/>
<path d="M373.622 256.151C373.541 320.316 322.082 372.441 258.176 373.601C261.939 311.018 311.331 260.961 373.622 256.151Z" fill="white"/>
<path d="M258.176 138.396C322.082 139.557 373.54 191.683 373.622 255.847C311.33 251.036 261.938 200.981 258.176 138.396Z" fill="white"/>
</svg>
