<svg width="101" height="100" viewBox="0 0 101 100" fill="none" xmlns="http://www.w3.org/2000/svg">
<path d="M50.0205 0C50.3294 1.12926e-06 50.6377 0.00321283 50.9453 0.00878906C49.3266 26.922 27.8519 48.3862 0.926758 50C27.8516 51.6138 49.3261 73.0774 50.9453 99.9902C50.6377 99.9958 50.3294 100 50.0205 100C22.3953 100 0 77.6142 0 50C1.37493e-06 22.3858 22.3953 0 50.0205 0Z" fill="white"/>
<path d="M100.039 50.0654C100.004 77.3404 78.1215 99.497 50.9453 99.9902C52.5459 73.3872 73.55 52.1105 100.039 50.0654Z" fill="white"/>
<path d="M50.9453 0.00878906C78.1212 0.501959 100.004 22.659 100.039 49.9336C73.5497 47.8885 52.5454 26.6123 50.9453 0.00878906Z" fill="white"/>
</svg>
