<svg width="500" height="157" viewBox="0 0 500 157" fill="none" xmlns="http://www.w3.org/2000/svg">
<path d="M487.045 96.9221C487.045 98.5151 487.185 99.8566 487.464 100.947C487.744 102.037 488.233 102.581 488.932 102.581C489.351 102.581 489.798 102.386 490.273 101.995C490.776 101.575 491.349 100.905 491.992 99.9824C492.635 99.0601 493.362 97.8723 494.172 96.419C495.011 94.9378 495.961 93.1352 497.023 91.0112L498.281 88.4121L500 89.7116L498.742 92.3108C497.568 94.6583 496.464 96.7684 495.43 98.6409C494.424 100.485 493.46 102.05 492.537 103.336C491.615 104.622 490.706 105.614 489.812 106.312C488.946 106.983 488.079 107.319 487.213 107.319C486.29 107.319 485.508 107.067 484.865 106.564C484.25 106.061 483.733 105.376 483.313 104.51C482.894 103.616 482.573 102.595 482.349 101.45C482.126 100.276 481.972 99.0321 481.888 97.7186C481.217 99.0601 480.476 100.318 479.666 101.492C478.855 102.637 478.003 103.643 477.108 104.51C476.242 105.376 475.333 106.061 474.383 106.564C473.433 107.067 472.483 107.319 471.532 107.319C470.135 107.319 468.779 107.025 467.465 106.438C466.152 105.851 464.978 104.957 463.944 103.755C462.937 102.554 462.127 101.044 461.512 99.2278C460.897 97.3832 460.589 95.2173 460.589 92.73C460.589 89.8234 460.967 87.1684 461.721 84.7649C462.476 82.3335 463.496 80.2514 464.782 78.5186C466.068 76.7579 467.549 75.4025 469.226 74.4523C470.903 73.4741 472.664 72.985 474.509 72.985C475.627 72.985 476.661 73.2366 477.611 73.7396C478.562 74.2427 479.386 74.8575 480.085 75.5841C480.812 76.2828 481.413 77.0374 481.888 77.8479C482.363 78.6304 482.685 79.3012 482.852 79.8601L483.355 75.7937C483.411 75.2627 483.663 74.8156 484.11 74.4523C484.585 74.089 485.102 73.8095 485.661 73.6138C486.22 73.3903 486.765 73.2366 487.296 73.1527C487.827 73.0409 488.205 72.985 488.428 72.985C488.764 72.985 488.987 73.0409 489.099 73.1527C489.211 73.2645 489.267 73.4881 489.267 73.8234C489.267 74.2427 489.141 75.0951 488.89 76.3806C488.666 77.6383 488.414 79.2592 488.135 81.2435C487.883 83.1999 487.632 85.5055 487.38 88.1605C487.157 90.8156 487.045 93.7361 487.045 96.9221ZM482.433 85.8549C482.433 84.5693 482.237 83.3116 481.846 82.082C481.455 80.8243 480.924 79.7204 480.253 78.7702C479.582 77.792 478.799 77.0095 477.905 76.4226C477.038 75.8357 476.116 75.5422 475.138 75.5422C473.936 75.5422 472.804 75.8916 471.742 76.5903C470.708 77.261 469.799 78.2252 469.017 79.4828C468.262 80.7125 467.661 82.2077 467.214 83.9684C466.767 85.7012 466.543 87.6156 466.543 89.7116C466.543 93.9038 467.2 97.1038 468.513 99.3116C469.827 101.492 471.574 102.581 473.754 102.581C474.705 102.581 475.683 102.204 476.689 101.45C477.723 100.667 478.66 99.5631 479.498 98.1378C480.365 96.6845 481.063 94.9238 481.594 92.8557C482.153 90.7876 482.433 88.454 482.433 85.8549Z" fill="black"/>
<path d="M446.395 75.8776C445.612 75.8776 444.732 76.2269 443.754 76.9256C442.803 77.6243 441.839 78.5326 440.861 79.6505C439.882 80.7405 438.932 81.9702 438.01 83.3396C437.115 84.709 436.333 86.0645 435.662 87.406C435.578 89.8653 435.494 92.5483 435.41 95.4548C435.354 98.3614 435.326 101.464 435.326 104.761C435.326 105.181 435.131 105.558 434.739 105.893C434.376 106.201 433.943 106.466 433.44 106.69C432.937 106.885 432.419 107.039 431.888 107.151C431.357 107.263 430.924 107.319 430.589 107.319C430.169 107.319 429.778 107.193 429.415 106.941C429.051 106.69 428.87 106.131 428.87 105.264C428.87 104.845 428.912 104.328 428.996 103.713C429.079 103.071 429.191 102.386 429.331 101.659C429.443 100.933 429.583 100.192 429.75 99.4374C429.89 98.6548 430.03 97.9282 430.169 97.2575V76.7579C430.169 76.199 430.183 75.7658 430.211 75.4584C430.211 75.123 430.253 74.8715 430.337 74.7038C430.505 74.3125 430.798 74.0051 431.218 73.7815C431.637 73.5579 432.084 73.3903 432.559 73.2785C433.034 73.1387 433.496 73.0549 433.943 73.0269C434.39 72.999 434.739 72.985 434.991 72.985C435.466 72.985 435.788 73.1108 435.955 73.3623C436.151 73.6138 436.249 74.061 436.249 74.7038C436.249 74.62 436.179 75.3047 436.039 76.7579C435.927 78.2112 435.829 80.2933 435.746 83.0042C436.584 81.6907 437.493 80.433 438.471 79.2313C439.449 78.0296 440.469 76.9675 441.531 76.0453C442.594 75.123 443.684 74.3824 444.802 73.8234C445.948 73.2645 447.108 72.985 448.282 72.985C450.378 72.985 451.915 73.6558 452.893 74.9972C453.872 76.3108 454.361 78.0994 454.361 80.3632C454.361 81.7885 454.263 83.3815 454.067 85.1422C453.9 86.875 453.69 88.6496 453.439 90.4662C453.215 92.2549 453.005 94.0156 452.81 95.7483C452.642 97.4531 452.558 99.0182 452.558 100.443C452.558 102.288 453.131 103.21 454.277 103.21C454.64 103.21 455.06 103.029 455.535 102.665C456.038 102.274 456.653 101.561 457.38 100.527C458.134 99.4933 459.029 98.0819 460.063 96.2933C461.097 94.4767 462.327 92.1431 463.752 89.2924L464.172 88.4121L465.891 89.7116L465.471 90.592C463.794 93.9457 462.299 96.6985 460.985 98.8505C459.699 101.002 458.526 102.707 457.463 103.965C456.401 105.223 455.409 106.103 454.487 106.606C453.564 107.081 452.642 107.319 451.72 107.319C451.133 107.319 450.546 107.235 449.959 107.067C449.372 106.899 448.855 106.606 448.407 106.187C447.96 105.768 447.597 105.209 447.317 104.51C447.038 103.783 446.898 102.861 446.898 101.743C446.898 100.066 447.01 98.1797 447.233 96.0837C447.457 93.9876 447.709 91.8915 447.988 89.7955C448.268 87.6994 448.519 85.7291 448.743 83.8846C448.966 82.0121 449.078 80.4889 449.078 79.3151C449.078 78.2811 448.855 77.4566 448.407 76.8418C447.96 76.199 447.289 75.8776 446.395 75.8776Z" fill="black"/>
<path d="M419.623 102.581C420.601 102.581 421.593 102.33 422.599 101.827C423.633 101.324 424.668 100.541 425.702 99.4793C426.764 98.4173 427.854 97.0479 428.972 95.371C430.09 93.6662 431.236 91.64 432.41 89.2924L432.829 88.4121L434.548 89.7116L434.129 90.592C432.62 93.5824 431.11 96.1396 429.601 98.2636C428.12 100.388 426.652 102.12 425.199 103.462C423.773 104.803 422.362 105.781 420.964 106.396C419.567 107.011 418.225 107.319 416.939 107.319C415.122 107.319 413.501 106.941 412.076 106.187C410.65 105.432 409.448 104.412 408.47 103.126C407.492 101.813 406.751 100.304 406.248 98.599C405.717 96.8662 405.451 95.0496 405.451 93.1492C405.451 90.1308 405.871 87.392 406.709 84.9326C407.52 82.4453 408.61 80.3213 409.979 78.5606C411.377 76.7999 412.956 75.4304 414.717 74.4523C416.478 73.4741 418.309 72.985 420.21 72.985C422.138 72.985 423.606 73.4741 424.612 74.4523C425.646 75.4304 426.163 76.6601 426.163 78.1413C426.163 79.5667 425.758 80.9082 424.947 82.1658C424.137 83.3955 423.033 84.6112 421.635 85.813C420.265 86.9867 418.672 88.1605 416.855 89.3343C415.039 90.4802 413.124 91.668 411.112 92.8977C411.307 94.3509 411.643 95.6784 412.118 96.8802C412.593 98.054 413.194 99.0741 413.921 99.9404C414.647 100.779 415.486 101.436 416.436 101.911C417.386 102.358 418.449 102.581 419.623 102.581Z" fill="black"/>
... (file continues identical to root file) ...
</svg>
